# xmcd
#
# Track frame offsets: 
#        150
#        13263
#        28876
#        41776
#        56562
#        70117
#        84270
#        97380
#        111473
#        122034
#        133409
#        147102
#
# Disc length: 2151 seconds
#
# Revision: 2
# Processed by: cddbd v1.5.2PL0 Copyright (c) Steve Scherf et al.
# Submitted via: ExactAudioCopyFreeDBPlugin 1.0
#
DISCID=b708650c
DTITLE=Billie Holiday - Summertime - I Cant Give You Anything But Love
DYEAR=1997
DGENRE=Vocal - Traditional Pop
TTITLE0=Summertime (Heyward, Gershwin)
TTITLE1=I Cant Give You Anything But Love (Fields, McHugh)
TTITLE2=A Fine Romance (Fields, Kern)
TTITLE3=Pennies From Heaven (Johnston, Burke)
TTITLE4=The Mood That Im In (Silver, Sherman)
TTITLE5=Thats Life I Guess (Lewis, De Rose)
TTITLE6=Ive Got My Love to Keep Me Warm (Berlin)
TTITLE7=Carelessly (Kenny, Kenny, Ellis)
TTITLE8=Detour Ahead (Ellis, Frigo, Carter)
TTITLE9=How Could You (Dubin, Warren)
TTITLE10=Gettin Some Fun Out Of Life (Leslie, Burke)
TTITLE11=This Is My Last Affair (Johnson)
EXTD=
EXTT0=
EXTT1=
EXTT2=
EXTT3=
EXTT4=
EXTT5=
EXTT6=
EXTT7=
EXTT8=
EXTT9=
EXTT10=
EXTT11=
PLAYORDER=
